HIERARCHY
ROOT Hips
{
	OFFSET -0.837515 112.758026 -1.479419
	CHANNELS 6 Xposition Yposition Zposition Xrotation Yrotation Zrotation
	JOINT Chest
	{
		OFFSET -0.098387 13.354088 2.795140
		CHANNELS 3 Xrotation Yrotation Zrotation
		JOINT Chest2
		{
			OFFSET -1.341344 20.906395 4.493315
			CHANNELS 3 Xrotation Yrotation Zrotation
			JOINT Chest3
			{
				OFFSET -0.927614 14.881241 -0.712828
				CHANNELS 3 Xrotation Yrotation Zrotation
				JOINT Neck
				{
					OFFSET -0.046812 17.096207 2.516642
					CHANNELS 3 Xrotation Yrotation Zrotation
					JOINT Head
					{
						OFFSET -0.481438 10.271927 2.020772
						CHANNELS 3 Xrotation Yrotation Zrotation
						End Site
						{
							OFFSET -0.471002 10.286102 1.949852
						}
					}
				}
				JOINT LeftCollar
				{
					OFFSET 4.369844 12.754013 4.477060
					CHANNELS 3 Xrotation Yrotation Zrotation
					JOINT LeftUpArm
					{
						OFFSET 14.066879 8.075348 -6.738767
						CHANNELS 3 Xrotation Yrotation Zrotation
						JOINT LeftLowArm
						{
							OFFSET 4.022307 29.730118 15.481237
							CHANNELS 3 Xrotation Yrotation Zrotation
							JOINT LeftHand
							{
								OFFSET -1.477125 29.237732 6.627211
								CHANNELS 3 Xrotation Yrotation Zrotation
								End Site
								{
									OFFSET -0.322834 6.390076 1.448421
								}
							}
						}
					}
				}
				JOINT RightCollar
				{
					OFFSET -4.024691 12.643036 5.075853
					CHANNELS 3 Xrotation Yrotation Zrotation
					JOINT RightUpArm
					{
						OFFSET -15.180256 7.298325 -4.979001
						CHANNELS 3 Xrotation Yrotation Zrotation
						JOINT RightLowArm
						{
							OFFSET -4.554708 29.912445 14.974464
							CHANNELS 3 Xrotation Yrotation Zrotation
							JOINT RightHand
							{
								OFFSET 2.451096 28.706772 8.418331
								CHANNELS 3 Xrotation Yrotation Zrotation
								End Site
								{
									OFFSET 0.535706 6.274155 1.839901
								}
							}
						}
					}
				}
			}
		}
	}
	JOINT LeftUpLeg
	{
		OFFSET 10.019650 0.099915 -0.125693
		CHANNELS 3 Xrotation Yrotation Zrotation
		JOINT LeftLowLeg
		{
			OFFSET 6.263965 -46.870773 -2.807553
			CHANNELS 3 Xrotation Yrotation Zrotation
			JOINT LeftFoot
			{
				OFFSET 1.042981 -41.724709 -16.078815
				CHANNELS 3 Xrotation Yrotation Zrotation
				JOINT LeftToe
				{
					OFFSET 0.585295 -19.271435 13.705063
					CHANNELS 3 Xrotation Yrotation Zrotation
					End Site
					{
						OFFSET 2.508081 -6.233409 22.680676
					}
				}
			}
		}
	}
	JOINT RightUpLeg
	{
		OFFSET -10.019651 -0.100113 0.125652
		CHANNELS 3 Xrotation Yrotation Zrotation
		JOINT RightLowLeg
		{
			OFFSET -3.054274 -47.181602 -2.929045
			CHANNELS 3 Xrotation Yrotation Zrotation
			JOINT RightFoot
			{
				OFFSET 0.113817 -41.172462 -17.475548
				CHANNELS 3 Xrotation Yrotation Zrotation
				JOINT RightToe
				{
					OFFSET 0.112094 -20.486330 11.826010
					CHANNELS 3 Xrotation Yrotation Zrotation
					End Site
					{
						OFFSET -2.692586 -8.467955 21.922586
					}
				}
			}
		}
	}
}
MOTION
Frames: 5
Frame Time: 0.033333
-6.806196 100.659302 -1.194133 -5.276895 14.895318 -4.910039 12.156553 1.320845 -13.907103 1.279459 -9.041299 14.018795 -6.756575 -7.406724 -0.115993 2.485117 -19.610071 20.446374 0.000001 -0.000001 0.000000 6.562319 1.090152 3.958955 -1.842825 13.191135 -8.592530 -6.370757 -5.825095 34.314140 -0.000000 0.000002 0.000003 7.182278 -9.400549 34.423440 14.365162 -21.680894 48.799328 17.996116 -1.015252 -28.974902 -0.000001 0.000001 0.000002 -21.709468 -25.351854 63.224889 49.525862 -27.217901 -87.156137 -39.276081 28.703231 46.849500 -0.000003 0.000000 0.000000 -11.620143 -0.697312 8.468750 10.152898 -0.656752 16.699334 -24.673683 -22.909493 -19.468730 -0.000001 0.000000 0.000001 
-6.898717 100.641159 -1.221490 -5.232711 14.795414 -4.901377 12.078689 1.325377 -14.055467 1.142779 -8.953664 13.869211 -6.459569 -7.287094 0.029069 2.335623 -19.887462 20.556059 0.000000 0.000001 -0.000001 6.963969 0.500826 3.720049 -2.414422 13.669052 -8.180215 -6.752682 -5.775908 34.445709 -0.000002 -0.000002 0.000001 7.162087 -9.647092 34.752460 14.270872 -21.670363 48.526718 17.926538 -1.092543 -29.060139 0.000001 0.000006 0.000005 -20.884967 -25.395347 64.639606 46.991982 -26.032516 -91.114081 -39.852620 28.772838 47.625977 0.000000 0.000004 -0.000002 -11.139973 -0.718630 8.684423 9.796391 -0.831857 16.333772 -24.543185 -22.604549 -19.140003 0.000000 0.000002 -0.000002 
-6.988463 100.617126 -1.251557 -5.026969 14.893743 -5.065340 12.177543 1.327216 -14.046604 1.523011 -9.051765 14.103641 -6.992513 -6.910324 -0.030231 2.047249 -19.951179 20.527961 -0.000000 0.000002 -0.000001 6.628548 0.883507 3.809734 -2.022837 13.233001 -8.208176 -6.745633 -6.027034 34.864994 0.000000 -0.000002 0.000000 7.019277 -10.100996 34.804930 14.349114 -21.057962 48.275599 18.444929 -1.203542 -29.051366 -0.000003 0.000003 0.000002 -20.874615 -25.723910 65.368325 44.747107 -24.863985 -94.546176 -40.287912 29.217896 48.494026 0.000000 -0.000003 -0.000000 -10.663704 -0.861423 9.301890 8.826244 -0.866535 15.496839 -24.132037 -22.579420 -18.964200 -0.000004 0.000002 -0.000001 
-7.074260 100.596359 -1.281734 -5.103795 14.894296 -5.060568 12.474553 1.302361 -14.123296 1.153450 -9.087387 14.106608 -6.613006 -7.104990 -0.040943 1.740397 -19.990280 20.598684 -0.000001 -0.000002 0.000000 6.541471 1.116290 3.833207 -1.816610 13.187269 -8.176150 -7.281690 -6.154965 34.818925 -0.000001 0.000001 0.000000 7.130845 -9.796046 34.725269 14.368628 -21.405850 48.518771 18.058884 -1.028018 -29.059866 -0.000003 0.000003 0.000003 -20.822737 -25.838519 65.605080 43.301924 -24.045037 -96.595404 -40.634110 29.840588 49.413106 0.000001 -0.000000 -0.000002 -10.327898 -0.883880 9.606933 8.448655 -0.730137 15.160366 -24.077407 -22.865535 -19.083566 -0.000000 -0.000002 0.000000 
-7.166748 100.566528 -1.312883 -4.784622 15.369010 -5.218963 11.919560 1.355443 -13.984915 1.805081 -9.034792 14.275532 -7.016496 -7.300842 -0.168089 1.723054 -19.805873 20.664374 -0.000002 -0.000003 -0.000001 6.520637 1.474197 3.673219 -1.565279 12.965489 -7.903977 -7.733257 -6.368114 34.776741 -0.000000 -0.000000 0.000001 7.539779 -9.103800 34.949620 14.643958 -21.162759 48.074942 17.167902 -0.877843 -29.139499 -0.000001 0.000006 0.000005 -21.246755 -26.069661 65.446456 43.239472 -24.117649 -96.926627 -40.037483 30.197243 49.201008 0.000000 -0.000002 0.000001 -10.339394 -0.991454 10.015967 7.949654 -0.776498 14.765913 -23.801597 -23.381057 -19.452500 0.000001 0.000000 -0.000000 
